<svg xmlns="http://www.w3.org/2000/svg" width="1600" height="900" viewBox="0 0 1600 900">
  <defs>
    <linearGradient id="bg" x1="0%" y1="0%" x2="100%" y2="100%">
      <stop offset="0%" stop-color="#1e1b4b"/>
      <stop offset="100%" stop-color="#0f172a"/>
    </linearGradient>
  </defs>
  <rect width="1600" height="900" fill="url(#bg)"/>
  <rect x="80" y="60" width="240" height="820" rx="16" fill="rgba(255,255,255,0.04)" stroke="rgba(255,255,255,0.08)"/>
  <rect x="110" y="100" width="100" height="12" rx="4" fill="#6366f1"/>
  <rect x="110" y="140" width="160" height="8" rx="4" fill="rgba(255,255,255,0.15)"/>
  <rect x="110" y="170" width="140" height="8" rx="4" fill="rgba(255,255,255,0.1)"/>
  <rect x="110" y="200" width="150" height="8" rx="4" fill="rgba(255,255,255,0.1)"/>
  <rect x="360" y="60" width="1120" height="820" rx="16" fill="rgba(255,255,255,0.03)" stroke="rgba(255,255,255,0.08)"/>
  <text x="400" y="120" font-family="system-ui,sans-serif" font-size="28" font-weight="700" fill="white">SaaS Analytics</text>
  <rect x="400" y="150" width="240" height="140" rx="14" fill="rgba(99,102,241,0.2)" stroke="rgba(99,102,241,0.4)"/>
  <text x="430" y="190" font-family="system-ui,sans-serif" font-size="13" fill="rgba(255,255,255,0.6)">MRR</text>
  <text x="430" y="250" font-family="system-ui,sans-serif" font-size="36" font-weight="700" fill="#a5b4fc">$42.8k</text>
  <text x="430" y="280" font-family="system-ui,sans-serif" font-size="12" fill="#22c55e">+12.4%</text>
  <rect x="660" y="150" width="240" height="140" rx="14" fill="rgba(34,211,238,0.12)" stroke="rgba(34,211,238,0.3)"/>
  <text x="690" y="190" font-family="system-ui,sans-serif" font-size="13" fill="rgba(255,255,255,0.6)">Active users</text>
  <text x="690" y="250" font-family="system-ui,sans-serif" font-size="36" font-weight="700" fill="#22d3ee">8,241</text>
  <rect x="980" y="150" width="240" height="140" rx="14" fill="rgba(255,255,255,0.05)"/>
  <text x="1010" y="190" font-family="system-ui,sans-serif" font-size="13" fill="rgba(255,255,255,0.6)">Churn</text>
  <text x="1010" y="250" font-family="system-ui,sans-serif" font-size="36" font-weight="700" fill="white">2.1%</text>
  <rect x="400" y="320" width="720" height="360" rx="14" fill="rgba(0,0,0,0.25)" stroke="rgba(255,255,255,0.06)"/>
  <polyline points="440,600 520,520 600,540 680,480 760,500 840,420 920,440 1000,380 1080,400" fill="none" stroke="#6366f1" stroke-width="3"/>
  <rect x="1140" y="320" width="320" height="360" rx="14" fill="rgba(255,255,255,0.04)"/>
  <text x="1170" y="360" font-family="system-ui,sans-serif" font-size="15" font-weight="600" fill="white">Top features</text>
  <rect x="1170" y="380" width="260" height="36" rx="8" fill="rgba(99,102,241,0.2)"/><rect x="1180" y="390" width="180" height="8" rx="4" fill="#a5b4fc"/>
  <rect x="1170" y="430" width="260" height="36" rx="8" fill="rgba(255,255,255,0.04)"/><rect x="1180" y="440" width="140" height="8" rx="4" fill="rgba(255,255,255,0.4)"/>
  <rect x="1170" y="480" width="260" height="36" rx="8" fill="rgba(255,255,255,0.04)"/><rect x="1180" y="490" width="100" height="8" rx="4" fill="rgba(255,255,255,0.3)"/>
  <text x="800" y="870" font-family="system-ui,sans-serif" font-size="22" fill="rgba(255,255,255,0.25)" text-anchor="middle">Analytics Dashboard SaaS</text>
</svg>
