<svg xmlns="http://www.w3.org/2000/svg" width="1600" height="900" viewBox="0 0 1600 900">
  <defs>
    <linearGradient id="bg" x1="0%" y1="0%" x2="100%" y2="100%">
      <stop offset="0%" stop-color="#052e16"/>
      <stop offset="45%" stop-color="#14532d"/>
      <stop offset="100%" stop-color="#0f172a"/>
    </linearGradient>
    <linearGradient id="heroGlow" x1="0%" y1="0%" x2="100%" y2="0%">
      <stop offset="0%" stop-color="#4ade80" stop-opacity="0.35"/>
      <stop offset="100%" stop-color="#fbbf24" stop-opacity="0.15"/>
    </linearGradient>
    <filter id="glow"><feGaussianBlur stdDeviation="8" result="b"/><feMerge><feMergeNode in="b"/><feMergeNode in="SourceGraphic"/></feMerge></filter>
    <pattern id="leafDots" width="40" height="40" patternUnits="userSpaceOnUse">
      <circle cx="20" cy="20" r="1.5" fill="#4ade80" opacity="0.12"/>
    </pattern>
  </defs>
  <rect width="1600" height="900" fill="url(#bg)"/>
  <rect width="1600" height="900" fill="url(#leafDots)"/>
  <circle cx="220" cy="720" r="180" fill="#4ade80" opacity="0.1"/>
  <circle cx="1380" cy="160" r="120" fill="#fbbf24" opacity="0.14"/>
  <rect x="120" y="48" width="1360" height="804" rx="22" fill="#1e293b" stroke="rgba(255,255,255,0.1)"/>
  <rect x="120" y="48" width="1360" height="54" fill="#334155" rx="22"/>
  <rect x="120" y="78" width="1360" height="24" fill="#334155"/>
  <circle cx="158" cy="75" r="9" fill="#ef4444"/><circle cx="183" cy="75" r="9" fill="#f59e0b"/><circle cx="208" cy="75" r="9" fill="#22c55e"/>
  <rect x="560" y="64" width="480" height="26" rx="13" fill="#0f172a"/>
  <text x="800" y="82" font-family="system-ui,sans-serif" font-size="13" fill="rgba(255,255,255,0.45)" text-anchor="middle">bjtrade.pl/pl</text>
  <rect x="160" y="118" width="90" height="14" rx="4" fill="#4ade80"/>
  <rect x="270" y="120" width="72" height="10" rx="4" fill="rgba(255,255,255,0.28)"/>
  <rect x="360" y="120" width="72" height="10" rx="4" fill="rgba(255,255,255,0.2)"/>
  <rect x="450" y="120" width="72" height="10" rx="4" fill="rgba(255,255,255,0.2)"/>
  <rect x="540" y="120" width="72" height="10" rx="4" fill="rgba(255,255,255,0.2)"/>
  <rect x="1180" y="110" width="200" height="38" rx="19" fill="rgba(74,222,128,0.18)" stroke="#4ade80"/>
  <text x="1280" y="134" font-family="system-ui,sans-serif" font-size="14" font-weight="600" fill="#4ade80" text-anchor="middle">Kontakt</text>
  <rect x="160" y="170" width="1280" height="300" rx="18" fill="url(#heroGlow)" opacity="0.35"/>
  <text x="200" y="260" font-family="system-ui,sans-serif" font-size="56" font-weight="700" fill="white">Handluj z nami</text>
  <text x="200" y="315" font-family="system-ui,sans-serif" font-size="24" fill="rgba(255,255,255,0.68)">Zioła i przyprawy — hurtowy import i dystrybucja B2B</text>
  <rect x="200" y="350" width="220" height="50" rx="25" fill="#16a34a" filter="url(#glow)"/>
  <text x="310" y="381" font-family="system-ui,sans-serif" font-size="16" font-weight="600" fill="white" text-anchor="middle">Napisz do nas</text>
  <rect x="440" y="350" width="200" height="50" rx="25" fill="rgba(255,255,255,0.08)" stroke="rgba(255,255,255,0.2)"/>
  <text x="540" y="381" font-family="system-ui,sans-serif" font-size="16" fill="rgba(255,255,255,0.75)" text-anchor="middle">Produkty</text>
  <rect x="200" y="500" width="210" height="190" rx="16" fill="rgba(74,222,128,0.12)" stroke="rgba(74,222,128,0.3)"/>
  <text x="220" y="540" font-family="system-ui,sans-serif" font-size="15" font-weight="600" fill="#86efac">Zioła</text>
  <rect x="220" y="560" width="150" height="10" rx="4" fill="rgba(74,222,128,0.35)"/>
  <rect x="220" y="580" width="120" height="10" rx="4" fill="rgba(74,222,128,0.22)"/>
  <rect x="220" y="600" width="135" height="10" rx="4" fill="rgba(74,222,128,0.18)"/>
  <rect x="430" y="500" width="210" height="190" rx="16" fill="rgba(251,191,36,0.12)" stroke="rgba(251,191,36,0.3)"/>
  <text x="450" y="540" font-family="system-ui,sans-serif" font-size="15" font-weight="600" fill="#fcd34d">Przyprawy</text>
  <rect x="450" y="560" width="150" height="10" rx="4" fill="rgba(251,191,36,0.35)"/>
  <rect x="450" y="580" width="120" height="10" rx="4" fill="rgba(251,191,36,0.22)"/>
  <rect x="660" y="500" width="210" height="190" rx="16" fill="rgba(255,255,255,0.05)" stroke="rgba(255,255,255,0.1)"/>
  <text x="680" y="540" font-family="system-ui,sans-serif" font-size="15" font-weight="600" fill="rgba(255,255,255,0.7)">Mieszanki</text>
  <rect x="890" y="500" width="210" height="190" rx="16" fill="rgba(255,255,255,0.05)" stroke="rgba(255,255,255,0.1)"/>
  <text x="910" y="540" font-family="system-ui,sans-serif" font-size="15" font-weight="600" fill="rgba(255,255,255,0.7)">Ekstrakty</text>
  <rect x="200" y="720" width="560" height="100" rx="16" fill="rgba(0,0,0,0.28)" stroke="rgba(255,255,255,0.08)"/>
  <text x="220" y="758" font-family="system-ui,sans-serif" font-size="16" font-weight="600" fill="white">Certyfikaty jakości</text>
  <rect x="220" y="772" width="72" height="36" rx="18" fill="rgba(74,222,128,0.2)" stroke="#4ade80"/>
  <text x="256" y="795" font-family="system-ui,sans-serif" font-size="12" font-weight="600" fill="#4ade80" text-anchor="middle">GMP</text>
  <rect x="310" y="772" width="80" height="36" rx="18" fill="rgba(251,191,36,0.2)" stroke="#fbbf24"/>
  <text x="350" y="795" font-family="system-ui,sans-serif" font-size="11" font-weight="600" fill="#fbbf24" text-anchor="middle">HACCP</text>
  <text x="800" y="868" font-family="system-ui,sans-serif" font-size="26" font-weight="600" fill="rgba(255,255,255,0.18)" text-anchor="middle">BJ Trade — strona firmowa B2B</text>
</svg>
