<svg xmlns="http://www.w3.org/2000/svg" width="1600" height="900" viewBox="0 0 1600 900">
  <defs>
    <linearGradient id="bg" x1="0%" y1="0%" x2="100%" y2="100%">
      <stop offset="0%" stop-color="#0c4a6e"/>
      <stop offset="50%" stop-color="#1e3a5f"/>
      <stop offset="100%" stop-color="#0f172a"/>
    </linearGradient>
    <linearGradient id="accent" x1="0%" y1="0%" x2="100%" y2="0%">
      <stop offset="0%" stop-color="#38bdf8"/>
      <stop offset="100%" stop-color="#818cf8"/>
    </linearGradient>
    <filter id="glow"><feGaussianBlur stdDeviation="6" result="b"/><feMerge><feMergeNode in="b"/><feMergeNode in="SourceGraphic"/></feMerge></filter>
  </defs>
  <rect width="1600" height="900" fill="url(#bg)"/>
  <circle cx="200" cy="180" r="140" fill="#38bdf8" opacity="0.12"/>
  <circle cx="1350" cy="720" r="200" fill="#818cf8" opacity="0.1"/>
  <rect x="120" y="48" width="1360" height="804" rx="22" fill="#1e293b" stroke="rgba(255,255,255,0.1)"/>
  <rect x="120" y="48" width="1360" height="54" fill="#334155" rx="22"/>
  <rect x="120" y="78" width="1360" height="24" fill="#334155"/>
  <circle cx="158" cy="75" r="9" fill="#ef4444"/><circle cx="183" cy="75" r="9" fill="#f59e0b"/><circle cx="208" cy="75" r="9" fill="#22c55e"/>
  <rect x="560" y="64" width="480" height="26" rx="13" fill="#0f172a"/>
  <text x="800" y="82" font-family="system-ui,sans-serif" font-size="13" fill="rgba(255,255,255,0.5)" text-anchor="middle">seo-opt-one.vercel.app</text>
  <text x="180" y="200" font-family="system-ui,sans-serif" font-size="48" font-weight="700" fill="white">KG.WebDev</text>
  <text x="180" y="250" font-family="system-ui,sans-serif" font-size="22" fill="url(#accent)">Seo tracker</text>
  <text x="180" y="290" font-family="system-ui,sans-serif" font-size="16" fill="rgba(255,255,255,0.55)">Audyt SEO, plany strategii i generator kodów</text>
  <rect x="180" y="330" width="200" height="48" rx="24" fill="url(#accent)" filter="url(#glow)"/>
  <text x="280" y="360" font-family="system-ui,sans-serif" font-size="15" font-weight="600" fill="white" text-anchor="middle">Analizuj stronę</text>
  <rect x="180" y="420" width="260" height="140" rx="16" fill="rgba(56,189,248,0.12)" stroke="rgba(56,189,248,0.35)"/>
  <text x="200" y="460" font-family="system-ui,sans-serif" font-size="14" fill="rgba(255,255,255,0.55)">Wynik SEO</text>
  <text x="200" y="520" font-family="system-ui,sans-serif" font-size="48" font-weight="700" fill="#38bdf8">100</text>
  <text x="270" y="520" font-family="system-ui,sans-serif" font-size="18" fill="rgba(255,255,255,0.45)">/100</text>
  <rect x="460" y="420" width="260" height="140" rx="16" fill="rgba(129,140,248,0.12)" stroke="rgba(129,140,248,0.35)"/>
  <text x="480" y="460" font-family="system-ui,sans-serif" font-size="14" fill="rgba(255,255,255,0.55)">Plany SEO</text>
  <text x="480" y="520" font-family="system-ui,sans-serif" font-size="48" font-weight="700" fill="#818cf8">5</text>
  <rect x="740" y="420" width="260" height="140" rx="16" fill="rgba(255,255,255,0.05)" stroke="rgba(255,255,255,0.1)"/>
  <text x="760" y="460" font-family="system-ui,sans-serif" font-size="14" fill="rgba(255,255,255,0.55)">Moduły</text>
  <text x="760" y="520" font-family="system-ui,sans-serif" font-size="48" font-weight="700" fill="rgba(255,255,255,0.85)">6</text>
  <rect x="180" y="600" width="820" height="180" rx="16" fill="rgba(255,255,255,0.04)" stroke="rgba(255,255,255,0.08)"/>
  <text x="210" y="650" font-family="system-ui,sans-serif" font-size="14" fill="rgba(255,255,255,0.45)">Analiza → Plan → Generuj kody → Raportuj</text>
  <rect x="210" y="680" width="120" height="8" rx="4" fill="#38bdf8"/>
  <rect x="340" y="680" width="120" height="8" rx="4" fill="#818cf8" opacity="0.6"/>
  <rect x="470" y="680" width="120" height="8" rx="4" fill="rgba(255,255,255,0.15)"/>
</svg>
