<svg xmlns="http://www.w3.org/2000/svg" width="1600" height="900" viewBox="0 0 1600 900">
  <defs>
    <linearGradient id="bg" x1="0%" y1="0%" x2="100%" y2="100%">
      <stop offset="0%" stop-color="#0f172a"/>
      <stop offset="50%" stop-color="#1e3a5f"/>
      <stop offset="100%" stop-color="#06b6d4"/>
    </linearGradient>
    <linearGradient id="card" x1="0%" y1="0%" x2="0%" y2="100%">
      <stop offset="0%" stop-color="rgba(255,255,255,0.12)"/>
      <stop offset="100%" stop-color="rgba(255,255,255,0.04)"/>
    </linearGradient>
  </defs>
  <rect width="1600" height="900" fill="url(#bg)"/>
  <rect x="200" y="80" width="1200" height="720" rx="24" fill="rgba(15,23,42,0.7)" stroke="rgba(255,255,255,0.1)" stroke-width="2"/>
  <rect x="200" y="80" width="1200" height="56" rx="24" fill="#1e293b"/>
  <rect x="200" y="112" width="1200" height="24" fill="#1e293b"/>
  <circle cx="240" cy="108" r="10" fill="#ef4444"/><circle cx="268" cy="108" r="10" fill="#f59e0b"/><circle cx="304" cy="108" r="10" fill="#22c55e"/>
  <text x="800" y="115" font-family="system-ui,sans-serif" font-size="14" fill="rgba(255,255,255,0.4)" text-anchor="middle">krystian.dev</text>
  <text x="280" y="220" font-family="system-ui,sans-serif" font-size="48" font-weight="700" fill="white">Full-Stack</text>
  <text x="280" y="280" font-family="system-ui,sans-serif" font-size="48" font-weight="700" fill="#22d3ee">Developer</text>
  <rect x="280" y="310" width="400" height="12" rx="4" fill="rgba(255,255,255,0.2)"/>
  <rect x="280" y="330" width="320" height="10" rx="4" fill="rgba(255,255,255,0.12)"/>
  <rect x="280" y="380" width="160" height="44" rx="22" fill="#06b6d4"/><text x="360" y="407" font-family="system-ui,sans-serif" font-size="15" font-weight="600" fill="white" text-anchor="middle">View work</text>
  <rect x="480" y="380" width="140" height="44" rx="22" fill="none" stroke="rgba(255,255,255,0.3)" stroke-width="2"/>
  <rect x="900" y="180" width="380" height="240" rx="16" fill="url(#card)" stroke="rgba(255,255,255,0.1)"/>
  <rect x="920" y="200" width="340" height="140" rx="10" fill="rgba(34,211,238,0.15)"/>
  <rect x="920" y="360" width="200" height="12" rx="4" fill="rgba(255,255,255,0.7)"/>
  <rect x="920" y="380" width="140" height="10" rx="4" fill="rgba(255,255,255,0.3)"/>
  <rect x="280" y="500" width="300" height="200" rx="16" fill="url(#card)" stroke="rgba(255,255,255,0.08)"/>
  <rect x="300" y="520" width="260" height="100" rx="10" fill="rgba(99,102,241,0.2)"/>
  <rect x="300" y="640" width="180" height="10" rx="4" fill="rgba(255,255,255,0.5)"/>
  <rect x="620" y="500" width="300" height="200" rx="16" fill="url(#card)" stroke="rgba(255,255,255,0.08)"/>
  <rect x="640" y="520" width="260" height="100" rx="10" fill="rgba(34,211,238,0.12)"/>
  <rect x="640" y="640" width="180" height="10" rx="4" fill="rgba(255,255,255,0.5)"/>
  <rect x="960" y="500" width="300" height="200" rx="16" fill="url(#card)" stroke="rgba(255,255,255,0.08)"/>
  <rect x="980" y="520" width="260" height="100" rx="10" fill="rgba(251,191,36,0.12)"/>
  <rect x="980" y="640" width="180" height="10" rx="4" fill="rgba(255,255,255,0.5)"/>
  <text x="800" y="860" font-family="system-ui,sans-serif" font-size="22" fill="rgba(255,255,255,0.25)" text-anchor="middle">Portfolio — Next.js + Once UI</text>
</svg>
