<svg xmlns="http://www.w3.org/2000/svg" width="1600" height="900" viewBox="0 0 1600 900">
  <defs>
    <linearGradient id="bg" x1="0%" y1="100%" x2="100%" y2="0%">
      <stop offset="0%" stop-color="#0c4a6e"/>
      <stop offset="100%" stop-color="#1e1b4b"/>
    </linearGradient>
  </defs>
  <rect width="1600" height="900" fill="url(#bg)"/>
  <rect x="120" y="80" width="700" height="760" rx="20" fill="rgba(15,23,42,0.85)" stroke="rgba(255,255,255,0.1)"/>
  <text x="160" y="140" font-family="system-ui,sans-serif" font-size="28" font-weight="700" fill="white">Server Architecture</text>
  <rect x="160" y="180" width="200" height="120" rx="12" fill="rgba(99,102,241,0.25)" stroke="#6366f1"/>
  <text x="180" y="220" font-family="system-ui,sans-serif" font-size="14" fill="#a5b4fc">TFS Core</text>
  <text x="180" y="250" font-family="system-ui,sans-serif" font-size="12" fill="rgba(255,255,255,0.5)">C++ + Lua</text>
  <rect x="400" y="180" width="200" height="120" rx="12" fill="rgba(34,211,238,0.15)" stroke="#22d3ee"/>
  <text x="420" y="220" font-family="system-ui,sans-serif" font-size="14" fill="#22d3ee">myAAC</text>
  <text x="420" y="250" font-family="system-ui,sans-serif" font-size="12" fill="rgba(255,255,255,0.5)">PHP CMS</text>
  <rect x="640" y="180" width="120" height="120" rx="12" fill="rgba(251,191,36,0.15)" stroke="#fbbf24"/>
  <text x="660" y="230" font-family="system-ui,sans-serif" font-size="14" fill="#fbbf24">MySQL</text>
  <path d="M360 240 H400" stroke="rgba(255,255,255,0.3)" stroke-width="2" marker-end="url(#arrow)"/>
  <path d="M600 240 H640" stroke="rgba(255,255,255,0.3)" stroke-width="2"/>
  <rect x="160" y="340" width="620" height="200" rx="12" fill="rgba(255,255,255,0.05)"/>
  <text x="180" y="380" font-family="system-ui,sans-serif" font-size="16" fill="rgba(255,255,255,0.7)">Custom Systems (Lua)</text>
  <rect x="180" y="400" width="130" height="48" rx="8" fill="rgba(99,102,241,0.3)"/><text x="200" y="430" font-family="system-ui,sans-serif" font-size="13" fill="white">Quests</text>
  <rect x="310" y="400" width="130" height="48" rx="8" fill="rgba(99,102,241,0.2)"/><text x="330" y="430" font-family="system-ui,sans-serif" font-size="13" fill="white">Events</text>
  <rect x="460" y="400" width="130" height="48" rx="8" fill="rgba(99,102,241,0.2)"/><text x="480" y="430" font-family="system-ui,sans-serif" font-size="13" fill="white">Economy</text>
  <rect x="610" y="400" width="130" height="48" rx="8" fill="rgba(99,102,241,0.2)"/><text x="630" y="430" font-family="system-ui,sans-serif" font-size="13" fill="white">PvP</text>
  <rect x="160" y="500" width="620" height="280" rx="12" fill="rgba(0,0,0,0.3)"/>
  <polyline points="200,700 280,620 360,650 440,540 520,580 600,480 680,520 760,400" fill="none" stroke="#22d3ee" stroke-width="3" stroke-linecap="round"/>
  <text x="180" y="540" font-family="system-ui,sans-serif" font-size="14" fill="rgba(255,255,255,0.5)">Player activity (6 years)</text>
  <rect x="880" y="80" width="600" height="760" rx="20" fill="rgba(255,255,255,0.04)" stroke="rgba(255,255,255,0.1)"/>
  <text x="920" y="140" font-family="system-ui,sans-serif" font-size="22" font-weight="600" fill="white">Community Stack</text>
  <rect x="920" y="180" width="520" height="64" rx="10" fill="rgba(255,255,255,0.06)"/><text x="940" y="218" font-family="system-ui,sans-serif" font-size="15" fill="rgba(255,255,255,0.8)">Registration &amp; Account Recovery</text>
  <rect x="920" y="270" width="520" height="64" rx="10" fill="rgba(255,255,255,0.06)"/><text x="940" y="308" font-family="system-ui,sans-serif" font-size="15" fill="rgba(255,255,255,0.8)">Shop &amp; Premium Points</text>
  <rect x="920" y="340" width="520" height="64" rx="10" fill="rgba(255,255,255,0.06)"/><text x="940" y="378" font-family="system-ui,sans-serif" font-size="15" fill="rgba(255,255,255,0.8)">Rankings &amp; Guild Pages</text>
  <rect x="920" y="430" width="520" height="64" rx="10" fill="rgba(255,255,255,0.06)"/><text x="940" y="468" font-family="system-ui,sans-serif" font-size="15" fill="rgba(255,255,255,0.8)">News &amp; Changelog</text>
  <rect x="920" y="520" width="520" height="64" rx="10" fill="rgba(34,211,238,0.12)" stroke="rgba(34,211,238,0.4)"/><text x="940" y="558" font-family="system-ui,sans-serif" font-size="15" fill="#22d3ee">Admin Panel (PHP)</text>
</svg>
