<svg xmlns="http://www.w3.org/2000/svg" width="1600" height="900" viewBox="0 0 1600 900">
  <defs>
    <linearGradient id="bg" x1="100%" y1="0%" x2="0%" y2="100%">
      <stop offset="0%" stop-color="#164e63"/>
      <stop offset="100%" stop-color="#020617"/>
    </linearGradient>
  </defs>
  <rect width="1600" height="900" fill="url(#bg)"/>
  <text x="120" y="100" font-family="system-ui,sans-serif" font-size="32" font-weight="700" fill="white">Admin Dashboard</text>
  <rect x="120" y="130" width="280" height="160" rx="16" fill="rgba(34,211,238,0.12)" stroke="rgba(34,211,238,0.3)"/>
  <text x="150" y="180" font-family="system-ui,sans-serif" font-size="14" fill="rgba(255,255,255,0.6)">Orders today</text>
  <text x="150" y="240" font-family="system-ui,sans-serif" font-size="42" font-weight="700" fill="#22d3ee">284</text>
  <rect x="420" y="130" width="280" height="160" rx="16" fill="rgba(255,255,255,0.05)"/>
  <text x="450" y="180" font-family="system-ui,sans-serif" font-size="14" fill="rgba(255,255,255,0.6)">Revenue</text>
  <text x="450" y="240" font-family="system-ui,sans-serif" font-size="42" font-weight="700" fill="white">€18.2k</text>
  <rect x="720" y="130" width="280" height="160" rx="16" fill="rgba(255,255,255,0.05)"/>
  <text x="750" y="180" font-family="system-ui,sans-serif" font-size="14" fill="rgba(255,255,255,0.6)">Conversion</text>
  <text x="750" y="240" font-family="system-ui,sans-serif" font-size="42" font-weight="700" fill="#22c55e">3.4%</text>
  <rect x="120" y="320" width="880" height="400" rx="16" fill="rgba(255,255,255,0.04)" stroke="rgba(255,255,255,0.08)"/>
  <polyline points="160,640 240,580 320,600 400,520 480,540 560,460 640,500 720,420 800,440 880,380 960,400" fill="none" stroke="#22d3ee" stroke-width="3"/>
  <polyline points="160,640 240,620 320,610 400,590 480,600 560,570 640,580 720,550 800,560 880,530 960,520" fill="none" stroke="rgba(255,255,255,0.25)" stroke-width="2"/>
  <rect x="1040" y="320" width="480" height="400" rx="16" fill="rgba(15,23,42,0.8)" stroke="rgba(255,255,255,0.1)"/>
  <text x="1080" y="360" font-family="system-ui,sans-serif" font-size="16" font-weight="600" fill="white">Recent orders</text>
  <rect x="1080" y="380" width="400" height="48" rx="8" fill="rgba(255,255,255,0.05)"/><text x="1100" y="410" font-family="system-ui,sans-serif" font-size="13" fill="rgba(255,255,255,0.7)">#12847 — €89 — Shipped</text>
  <rect x="1080" y="430" width="400" height="48" rx="8" fill="rgba(255,255,255,0.04)"/><text x="1100" y="460" font-family="system-ui,sans-serif" font-size="13" fill="rgba(255,255,255,0.6)">#12846 — €149 — Processing</text>
  <rect x="1080" y="480" width="400" height="48" rx="8" fill="rgba(255,255,255,0.04)"/><text x="1100" y="510" font-family="system-ui,sans-serif" font-size="13" fill="rgba(255,255,255,0.6)">#12845 — €42 — Delivered</text>
</svg>
