<svg xmlns="http://www.w3.org/2000/svg" width="1600" height="900" viewBox="0 0 1600 900">
  <defs>
    <linearGradient id="bg" x1="0%" y1="0%" x2="100%" y2="100%">
      <stop offset="0%" stop-color="#0f172a"/>
      <stop offset="100%" stop-color="#0891b2"/>
    </linearGradient>
  </defs>
  <rect width="1600" height="900" fill="url(#bg)"/>
  <rect x="140" y="60" width="1320" height="780" rx="20" fill="#1e293b" stroke="rgba(255,255,255,0.1)"/>
  <rect x="140" y="60" width="1320" height="52" fill="#334155" rx="20"/>
  <rect x="140" y="88" width="1320" height="24" fill="#334155"/>
  <circle cx="175" cy="86" r="9" fill="#ef4444"/><circle cx="200" cy="86" r="9" fill="#f59e0b"/><circle cx="225" cy="86" r="9" fill="#22c55e"/>
  <!-- Nav -->
  <rect x="180" y="130" width="80" height="12" rx="4" fill="#22d3ee"/>
  <rect x="300" y="130" width="60" height="10" rx="4" fill="rgba(255,255,255,0.3)"/>
  <rect x="380" y="130" width="60" height="10" rx="4" fill="rgba(255,255,255,0.2)"/>
  <rect x="1200" y="120" width="160" height="36" rx="18" fill="rgba(34,211,238,0.2)" stroke="#22d3ee"/>
  <text x="1280" y="143" font-family="system-ui,sans-serif" font-size="14" fill="#22d3ee" text-anchor="middle">Cart (3)</text>
  <!-- Hero product -->
  <rect x="180" y="180" width="560" height="400" rx="16" fill="rgba(255,255,255,0.06)"/>
  <rect x="200" y="200" width="520" height="280" rx="12" fill="linear-gradient(#334155,#1e293b)"/>
  <defs><linearGradient id="prod" x1="0" y1="0" x2="1" y2="1"><stop stop-color="#475569"/><stop offset="1" stop-color="#1e293b"/></linearGradient></defs>
  <rect x="200" y="200" width="520" height="280" rx="12" fill="url(#prod)"/>
  <circle cx="460" cy="340" r="80" fill="rgba(34,211,238,0.2)" stroke="#22d3ee" stroke-width="2"/>
  <rect x="200" y="500" width="200" height="14" rx="4" fill="white" opacity="0.9"/>
  <rect x="200" y="524" width="120" height="10" rx="4" fill="rgba(255,255,255,0.4)"/>
  <text x="200" y="560" font-family="system-ui,sans-serif" font-size="32" font-weight="700" fill="#22d3ee">€149</text>
  <rect x="320" y="540" width="140" height="40" rx="20" fill="#06b6d4"/><text x="390" y="565" font-family="system-ui,sans-serif" font-size="14" font-weight="600" fill="white" text-anchor="middle">Add to cart</text>
  <!-- Product grid -->
  <rect x="780" y="180" width="200" height="220" rx="12" fill="rgba(255,255,255,0.05)"/>
  <rect x="800" y="200" width="160" height="120" rx="8" fill="rgba(99,102,241,0.2)"/>
  <rect x="800" y="340" width="100" height="10" rx="4" fill="rgba(255,255,255,0.6)"/>
  <rect x="1020" y="180" width="200" height="220" rx="12" fill="rgba(255,255,255,0.05)"/>
  <rect x="1040" y="200" width="160" height="120" rx="8" fill="rgba(34,211,238,0.15)"/>
  <rect x="1040" y="340" width="100" height="10" rx="4" fill="rgba(255,255,255,0.6)"/>
  <rect x="1240" y="180" width="200" height="220" rx="12" fill="rgba(255,255,255,0.05)"/>
  <rect x="1260" y="200" width="160" height="120" rx="8" fill="rgba(251,191,36,0.15)"/>
  <rect x="1260" y="340" width="100" height="10" rx="4" fill="rgba(255,255,255,0.6)"/>
  <!-- Checkout strip -->
  <rect x="780" y="430" width="760" height="200" rx="16" fill="rgba(34,211,238,0.08)" stroke="rgba(34,211,238,0.25)"/>
  <text x="820" y="480" font-family="system-ui,sans-serif" font-size="20" font-weight="600" fill="white">Stripe Checkout</text>
  <rect x="820" y="500" width="300" height="40" rx="8" fill="rgba(255,255,255,0.08)"/>
  <rect x="820" y="560" width="180" height="36" rx="8" fill="#22c55e"/><text x="910" y="583" font-family="system-ui,sans-serif" font-size="14" fill="white" text-anchor="middle">Pay €447</text>
  <text x="800" y="870" font-family="system-ui,sans-serif" font-size="24" fill="rgba(255,255,255,0.3)" text-anchor="middle">E-commerce Next.js</text>
</svg>
