<svg xmlns="http://www.w3.org/2000/svg" width="1200" height="630" viewBox="0 0 1200 630">
  <defs>
    <linearGradient id="bg" x1="0%" y1="0%" x2="100%" y2="100%">
      <stop offset="0%" stop-color="#020617"/>
      <stop offset="40%" stop-color="#0e7490"/>
      <stop offset="100%" stop-color="#164e63"/>
    </linearGradient>
    <linearGradient id="accent" x1="0%" y1="0%" x2="100%" y2="0%">
      <stop offset="0%" stop-color="#22d3ee"/>
      <stop offset="100%" stop-color="#06b6d4"/>
    </linearGradient>
    <filter id="blur" x="-20%" y="-20%" width="140%" height="140%">
      <feGaussianBlur stdDeviation="40"/>
    </filter>
    <pattern id="dots" width="24" height="24" patternUnits="userSpaceOnUse">
      <circle cx="2" cy="2" r="1.5" fill="rgba(255,255,255,0.08)"/>
    </pattern>
  </defs>
  <rect width="1200" height="630" fill="url(#bg)"/>
  <rect width="1200" height="630" fill="url(#dots)"/>
  <circle cx="200" cy="120" r="120" fill="#22d3ee" opacity="0.15" filter="url(#blur)"/>
  <circle cx="1000" cy="500" r="160" fill="#0891b2" opacity="0.2" filter="url(#blur)"/>
  <rect x="80" y="140" width="520" height="340" rx="20" fill="rgba(255,255,255,0.06)" stroke="rgba(255,255,255,0.12)"/>
  <rect x="100" y="160" width="480" height="28" rx="6" fill="rgba(255,255,255,0.1)"/>
  <rect x="100" y="200" width="200" height="12" rx="4" fill="rgba(34,211,238,0.6)"/>
  <rect x="100" y="224" width="320" height="10" rx="4" fill="rgba(255,255,255,0.2)"/>
  <rect x="100" y="260" width="140" height="100" rx="12" fill="rgba(255,255,255,0.08)"/>
  <rect x="260" y="260" width="140" height="100" rx="12" fill="rgba(255,255,255,0.08)"/>
  <rect x="420" y="260" width="100" height="100" rx="12" fill="rgba(34,211,238,0.15)"/>
  <rect x="100" y="360" width="420" height="8" rx="4" fill="rgba(255,255,255,0.12)"/>
  <rect x="100" y="376" width="360" height="8" rx="4" fill="rgba(255,255,255,0.08)"/>
  <text x="640" y="280" font-family="system-ui,sans-serif" font-size="52" font-weight="700" fill="white">Krystian</text>
  <text x="640" y="340" font-family="system-ui,sans-serif" font-size="26" fill="rgba(255,255,255,0.75)">Full-Stack Developer</text>
  <rect x="640" y="370" width="280" height="6" rx="3" fill="url(#accent)"/>
  <text x="640" y="420" font-family="system-ui,sans-serif" font-size="20" fill="rgba(255,255,255,0.55)">TFS · myAAC · Next.js · TypeScript</text>
</svg>
